<?xml version="1.0" standalone="no"?>
<!DOCTYPE svg PUBLIC "-//W3C//DTD SVG 20010904//EN"
 "http://www.w3.org/TR/2001/REC-SVG-20010904/DTD/svg10.dtd">
<svg version="1.0" xmlns="http://www.w3.org/2000/svg"
 width="1181.000000pt" height="1181.000000pt" viewBox="0 0 1181.000000 1181.000000"
 preserveAspectRatio="xMidYMid meet">

<g transform="translate(0.000000,1181.000000) scale(0.100000,-0.100000)"
fill="#000000" stroke="none">
<path d="M4195 11804 c-22 -3 -89 -14 -148 -25 -554 -103 -1022 -486 -1231
-1006 -99 -246 -140 -514 -118 -760 15 -160 33 -247 83 -397 151 -456 489
-820 936 -1006 213 -90 490 -139 713 -127 434 24 807 190 1110 496 466 471
605 1161 360 1784 -83 212 -199 386 -370 557 -137 137 -262 228 -425 309 -240
120 -440 169 -705 175 -91 2 -183 2 -205 0z m400 -743 c323 -85 587 -350 677
-679 28 -103 31 -352 5 -455 -67 -268 -259 -508 -502 -629 -292 -146 -664
-123 -935 57 -364 242 -517 687 -376 1096 46 135 114 245 216 350 152 155 317
240 550 283 62 11 287 -3 365 -23z"/>
<path d="M0 10145 l0 -1605 975 0 975 0 0 360 0 360 -615 0 -615 0 0 1245 0
1245 -360 0 -360 0 0 -1605z"/>
<path d="M7381 10917 l-481 -834 0 -771 0 -772 365 0 365 0 0 689 0 689 521
902 c286 495 523 908 526 916 4 12 -51 14 -405 14 l-410 0 -481 -833z"/>
<path d="M4185 7559 c-1193 -124 -1867 -1439 -1272 -2482 305 -537 880 -856
1502 -834 183 7 300 28 476 87 407 135 759 441 954 830 184 366 224 810 109
1208 -222 767 -974 1274 -1769 1191z m396 -738 c340 -88 599 -344 691 -683 32
-118 32 -355 0 -473 -46 -169 -136 -318 -263 -441 -178 -170 -370 -251 -619
-261 -211 -8 -384 41 -561 159 -327 219 -485 630 -389 1014 27 108 116 283
190 372 142 170 367 298 585 332 90 14 278 4 366 -19z"/>
<path d="M0 5905 l0 -1605 975 0 975 0 0 360 0 360 -615 0 -615 0 0 1245 0
1245 -360 0 -360 0 0 -1605z"/>
<path d="M4260 3320 c-721 -89 -1286 -593 -1446 -1290 -70 -307 -50 -646 56
-945 181 -508 624 -894 1185 -1031 494 -120 1053 -36 1440 216 102 67 160 114
258 209 l77 76 0 637 0 638 -570 0 -570 0 0 -340 0 -340 210 0 210 0 0 -139 0
-139 -83 -40 c-169 -83 -358 -119 -576 -109 -464 20 -839 314 -938 734 -26
112 -23 328 6 438 28 110 118 284 191 373 118 142 317 268 494 312 313 79 643
-8 883 -233 l52 -49 36 28 c104 85 494 441 494 451 1 18 -164 166 -265 238
-209 149 -448 249 -699 291 -113 18 -346 26 -445 14z"/>
<path d="M10400 3319 c-276 -29 -565 -138 -790 -296 -119 -84 -315 -280 -397
-396 -125 -178 -226 -412 -275 -637 -19 -91 -22 -134 -22 -325 0 -191 3 -234
22 -325 76 -349 215 -605 461 -850 249 -248 520 -393 863 -462 164 -33 453
-33 617 0 307 62 571 193 807 401 149 131 165 89 -143 364 l-265 237 -61 -56
c-123 -111 -263 -187 -422 -230 -55 -15 -104 -18 -230 -18 -145 0 -169 3 -249
28 -326 99 -563 337 -657 658 -16 54 -22 111 -26 218 -6 180 14 284 82 427 57
121 114 200 206 288 128 121 263 197 426 237 124 31 322 31 447 0 156 -39 307
-122 430 -236 28 -26 53 -45 57 -44 3 2 125 109 269 238 l262 235 -100 96
c-341 329 -837 499 -1312 448z"/>
<path d="M7015 1674 c-445 -878 -811 -1600 -813 -1605 -2 -5 166 -9 401 -9
l405 0 811 1599 c446 880 811 1602 811 1605 0 3 -181 6 -402 6 l-403 0 -810
-1596z"/>
</g>
</svg>
